<?xml version="1.0" standalone="no"?><!DOCTYPE svg PUBLIC "-//W3C//DTD SVG 1.1//EN" "http://www.w3.org/Graphics/SVG/1.1/DTD/svg11.dtd"><svg t="1641369964819" class="icon" viewBox="0 0 1024 1024" version="1.1" xmlns="http://www.w3.org/2000/svg" p-id="11889" xmlns:xlink="http://www.w3.org/1999/xlink" width="200" height="200"><defs><style type="text/css"></style></defs><path d="M928 618.688a32 32 0 0 1 31.488 26.24l0.512 5.76v138.624a170.688 170.688 0 0 1-159.872 170.368l-10.816 0.32h-138.624a32 32 0 0 1-5.76-63.488l5.76-0.512h138.624c55.808 0 101.632-42.88 106.24-97.472l0.448-9.216v-138.624a32 32 0 0 1 32-32z m-832 0a32 32 0 0 1 31.488 26.24l0.512 5.76v138.624c0 55.808 42.88 101.632 97.472 106.24l9.216 0.448h138.624a32 32 0 0 1 5.76 63.488l-5.76 0.512H234.688a170.688 170.688 0 0 1-170.368-159.872L64 789.312v-138.624a32 32 0 0 1 32-32zM736 320a32 32 0 0 1 32 32v64a32 32 0 1 1-64 0V384H544v352a32 32 0 1 1-64 0V384H320v32a32 32 0 0 1-64 0v-64a32 32 0 0 1 32-32h448z m53.312-256a170.688 170.688 0 0 1 170.368 159.872l0.32 10.816v138.624a32 32 0 0 1-63.488 5.76L896 373.312V234.688c0-55.808-42.88-101.632-97.472-106.24L789.312 128h-138.624a32 32 0 0 1-5.76-63.488l5.76-0.512h138.624z m-416 0a32 32 0 0 1 5.76 63.488L373.312 128H234.688c-55.808 0-101.632 42.88-106.24 97.472L128 234.688v138.624a32 32 0 0 1-63.488 5.76L64 373.312V234.688a170.688 170.688 0 0 1 159.872-170.368L234.688 64h138.624z" p-id="11890"></path></svg>